<?xml version="1.0" encoding="UTF-8"?>
<svg id="Layer_1" xmlns="http://www.w3.org/2000/svg" version="1.1" xmlns:xlink="http://www.w3.org/1999/xlink" viewBox="0 0 794.13 248.11">
  <!-- Generator: Adobe Illustrator 30.0.0, SVG Export Plug-In . SVG Version: 2.1.1 Build 123)  -->
  <defs>
    <linearGradient id="linear-gradient" x1="713.23" y1="28.61" x2="714.03" y2="186" gradientUnits="userSpaceOnUse">
      <stop offset="0" stop-color="#06dcc3"/>
      <stop offset="1" stop-color="#05a0ec"/>
    </linearGradient>
  </defs>
  <path d="M624.29,164.85v13.79c0,6.63-5.37,12-12,12h-34.47c-9.94,0-19.61-3.6-26.87-10.37-.11-.1-.21-.2-.32-.3-7.81-7.42-12.04-17.84-12.04-28.61V13.47c0-6.63,5.38-12,12-12h13.8c6.63,0,12,5.37,12,12v36.96c0,2.08,1.69,3.77,3.77,3.77h21.84c6.63,0,12,5.37,12,12v13.8c0,6.63-5.37,12-12,12h-21.84c-2.04,0-3.7,1.63-3.76,3.65-.01.04-.01.08-.01.12v48.6c0,4.68,3.8,8.48,8.48,8.48h27.43c6.63,0,12,5.37,12,12Z" fill="#09358c"/>
  <g>
    <rect x="476.43" y="54.12" width="37.8" height="136.52" rx="12" ry="12" fill="#09358c"/>
    <rect x="474.75" y="1.81" width="37.8" height="36.4" rx="12" ry="12" transform="translate(987.29 40.01) rotate(-180)" fill="#09358c"/>
  </g>
  <path d="M13.68,1.81C7.05,1.81,1.68,7.18,1.68,13.81v13.8c0,6.63,5.37,12,12,12h59.67v138.63c0,6.63,5.37,12,12,12h13.8c6.63,0,12-5.37,12-12V40.07c0-.16-.02-.31-.02-.47h59.69c6.63,0,12-5.37,12-12v-13.8c0-6.63-5.37-12-12-12H13.68Z" fill="#09358c"/>
  <path d="M269.7,58.63h-21.19c-2.68,0-4.84,2.17-4.84,4.84-5.2-2.65-10.77-4.74-16.64-6.16-5.86-1.41-12.02-2.17-18.36-2.17-40.21,0-72.79,30.32-72.79,67.75s32.58,67.75,72.79,67.75c12.88,0,24.98-3.11,35.47-8.58,1.4,4.91,5.92,8.49,11.28,8.49h14.05c6.62,0,12-5.37,12-12v-108.15c0-6.5-5.27-11.77-11.77-11.77ZM243.67,134.37c-5.09,13.43-18.84,23.05-35,23.05-20.49,0-37.09-15.46-37.09-34.53s16.6-34.54,37.09-34.54c16.16,0,29.91,9.62,35,23.05,1.36,3.6,2.1,7.46,2.1,11.49s-.74,7.88-2.1,11.48Z" fill="#09358c"/>
  <path d="M378.95,55.09c-12.69,0-24.61,3.02-35,8.33,0-1.34-.54-2.54-1.42-3.42-.87-.88-2.08-1.42-3.42-1.42h-21.19c-6.5,0-11.77,7.51-11.77,16.78v159.28c0,6.63,5.37,12,12,12h14.05c5.36,0,9.88-5.1,11.28-12.09.32-1.48.47-3.03.47-4.65v-47.65c10.39,5.33,22.31,8.34,35,8.34,40.21,0,72.79-30.33,72.79-67.76s-32.58-67.74-72.79-67.74ZM378.95,157.36c-16.16,0-29.91-9.61-35-23.04-.03-.06-.05-.14-.08-.21-1.32-3.53-2.02-7.33-2.02-11.28s.74-7.88,2.1-11.48c5.09-13.43,18.84-23.05,35-23.05,20.49,0,37.1,15.46,37.1,34.53s-16.61,34.53-37.1,34.53Z" fill="#09358c"/>
  <path d="M792.45,58.56v36.11l-14.26-10.66h-.02s0,37.52,0,37.52c0,24.36-12.64,47.31-33.83,59.34-.78.44-1.56.87-2.35,1.28-.36.19-.72.38-1.08.55-10.15,5.07-21.76,7.96-34.09,7.96-39.85,0-72.16-30.07-72.16-67.17s32.3-67.15,72.16-67.15c2.33,0,4.63.11,6.9.31v33.21c-2.25-.38-4.55-.6-6.9-.6-20.31,0-36.77,15.32-36.77,34.23s16.47,34.23,36.77,34.23c.64,0,1.28,0,1.92-.04,18.16-.87,32.17-16.39,32.17-34.56v-38.93l-14.16,10.56-.25.19v-36.08l33.13-27.12,18.57,15.17,14.26,11.67Z" fill="url(#linear-gradient)"/>
</svg>